<?xml version="1.0" encoding="UTF-8" standalone="no"?>
<svg
   height="128"
   width="128"
   version="1.1"
   id="svg26"
   sodipodi:docname="icon.svg"
   xml:space="preserve"
   inkscape:version="1.2.1 (9c6d41e410, 2022-07-14)"
   xmlns:inkscape="http://www.inkscape.org/namespaces/inkscape"
   xmlns:sodipodi="http://sodipodi.sourceforge.net/DTD/sodipodi-0.dtd"
   xmlns="http://www.w3.org/2000/svg"
   xmlns:svg="http://www.w3.org/2000/svg"><defs
     id="defs30" /><sodipodi:namedview
     id="namedview28"
     pagecolor="#ffffff"
     bordercolor="#000000"
     borderopacity="0.25"
     inkscape:showpageshadow="2"
     inkscape:pageopacity="0.0"
     inkscape:pagecheckerboard="0"
     inkscape:deskcolor="#d1d1d1"
     showgrid="true"
     inkscape:zoom="2.8367136"
     inkscape:cx="86.015029"
     inkscape:cy="-9.1655359"
     inkscape:window-width="2560"
     inkscape:window-height="1369"
     inkscape:window-x="-8"
     inkscape:window-y="-8"
     inkscape:window-maximized="1"
     inkscape:current-layer="svg26"
     showguides="false"><inkscape:grid
       type="xygrid"
       id="grid159" /></sodipodi:namedview><g
     transform="translate(32 32)"
     id="g6"><path
       d="m-16-32c-8.86 0-16 7.13-16 15.99v95.98c0 8.86 7.13 15.99 16 15.99h96c8.86 0 16-7.13 16-15.99v-95.98c0-8.85-7.14-15.99-16-15.99z"
       fill="#363d52"
       id="path2" /><path
       d="m-16-32c-8.86 0-16 7.13-16 15.99v95.98c0 8.86 7.13 15.99 16 15.99h96c8.86 0 16-7.13 16-15.99v-95.98c0-8.85-7.14-15.99-16-15.99zm0 4h96c6.64 0 12 5.35 12 11.99v95.98c0 6.64-5.35 11.99-12 11.99h-96c-6.64 0-12-5.35-12-11.99v-95.98c0-6.64 5.36-11.99 12-11.99z"
       fill-opacity=".4"
       id="path4" /></g><g
     stroke-width="9.92746"
     transform="matrix(.10073078 0 0 .10073078 12.425923 2.256365)"
     id="g24"><path
       d="m0 0s-.325 1.994-.515 1.976l-36.182-3.491c-2.879-.278-5.115-2.574-5.317-5.459l-.994-14.247-27.992-1.997-1.904 12.912c-.424 2.872-2.932 5.037-5.835 5.037h-38.188c-2.902 0-5.41-2.165-5.834-5.037l-1.905-12.912-27.992 1.997-.994 14.247c-.202 2.886-2.438 5.182-5.317 5.46l-36.2 3.49c-.187.018-.324-1.978-.511-1.978l-.049-7.83 30.658-4.944 1.004-14.374c.203-2.91 2.551-5.263 5.463-5.472l38.551-2.75c.146-.01.29-.016.434-.016 2.897 0 5.401 2.166 5.825 5.038l1.959 13.286h28.005l1.959-13.286c.423-2.871 2.93-5.037 5.831-5.037.142 0 .284.005.423.015l38.556 2.75c2.911.209 5.26 2.562 5.463 5.472l1.003 14.374 30.645 4.966z"
       fill="#fff"
       transform="matrix(4.162611 0 0 -4.162611 919.24059 771.67186)"
       id="path8" /><path
       d="m0 0v-47.514-6.035-5.492c.108-.001.216-.005.323-.015l36.196-3.49c1.896-.183 3.382-1.709 3.514-3.609l1.116-15.978 31.574-2.253 2.175 14.747c.282 1.912 1.922 3.329 3.856 3.329h38.188c1.933 0 3.573-1.417 3.855-3.329l2.175-14.747 31.575 2.253 1.115 15.978c.133 1.9 1.618 3.425 3.514 3.609l36.182 3.49c.107.01.214.014.322.015v4.711l.015.005v54.325c5.09692 6.4164715 9.92323 13.494208 13.621 19.449-5.651 9.62-12.575 18.217-19.976 26.182-6.864-3.455-13.531-7.369-19.828-11.534-3.151 3.132-6.7 5.694-10.186 8.372-3.425 2.751-7.285 4.768-10.946 7.118 1.09 8.117 1.629 16.108 1.846 24.448-9.446 4.754-19.519 7.906-29.708 10.17-4.068-6.837-7.788-14.241-11.028-21.479-3.842.642-7.702.88-11.567.926v.006c-.027 0-.052-.006-.075-.006-.024 0-.049.006-.073.006v-.006c-3.872-.046-7.729-.284-11.572-.926-3.238 7.238-6.956 14.642-11.03 21.479-10.184-2.264-20.258-5.416-29.703-10.17.216-8.34.755-16.331 1.848-24.448-3.668-2.35-7.523-4.367-10.949-7.118-3.481-2.678-7.036-5.24-10.188-8.372-6.297 4.165-12.962 8.079-19.828 11.534-7.401-7.965-14.321-16.562-19.974-26.182 4.4426579-6.973692 9.2079702-13.9828876 13.621-19.449z"
       fill="#478cbf"
       transform="matrix(4.162611 0 0 -4.162611 104.69892 525.90697)"
       id="path10" /><path
       d="m0 0-1.121-16.063c-.135-1.936-1.675-3.477-3.611-3.616l-38.555-2.751c-.094-.007-.188-.01-.281-.01-1.916 0-3.569 1.406-3.852 3.33l-2.211 14.994h-31.459l-2.211-14.994c-.297-2.018-2.101-3.469-4.133-3.32l-38.555 2.751c-1.936.139-3.476 1.68-3.611 3.616l-1.121 16.063-32.547 3.138c.015-3.498.06-7.33.06-8.093 0-34.374 43.605-50.896 97.781-51.086h.066.067c54.176.19 97.766 16.712 97.766 51.086 0 .777.047 4.593.063 8.093z"
       fill="#478cbf"
       transform="matrix(4.162611 0 0 -4.162611 784.07144 817.24284)"
       id="path12" /><path
       d="m0 0c0-12.052-9.765-21.815-21.813-21.815-12.042 0-21.81 9.763-21.81 21.815 0 12.044 9.768 21.802 21.81 21.802 12.048 0 21.813-9.758 21.813-21.802"
       fill="#fff"
       transform="matrix(4.162611 0 0 -4.162611 389.21484 625.67104)"
       id="path14" /><path
       d="m0 0c0-7.994-6.479-14.473-14.479-14.473-7.996 0-14.479 6.479-14.479 14.473s6.483 14.479 14.479 14.479c8 0 14.479-6.485 14.479-14.479"
       fill="#414042"
       transform="matrix(4.162611 0 0 -4.162611 367.36686 631.05679)"
       id="path16" /><path
       d="m0 0c-3.878 0-7.021 2.858-7.021 6.381v20.081c0 3.52 3.143 6.381 7.021 6.381s7.028-2.861 7.028-6.381v-20.081c0-3.523-3.15-6.381-7.028-6.381"
       fill="#fff"
       transform="matrix(4.162611 0 0 -4.162611 511.99336 724.73954)"
       id="path18" /><path
       d="m0 0c0-12.052 9.765-21.815 21.815-21.815 12.041 0 21.808 9.763 21.808 21.815 0 12.044-9.767 21.802-21.808 21.802-12.05 0-21.815-9.758-21.815-21.802"
       fill="#fff"
       transform="matrix(4.162611 0 0 -4.162611 634.78706 625.67104)"
       id="path20" /><path
       d="m0 0c0-7.994 6.477-14.473 14.471-14.473 8.002 0 14.479 6.479 14.479 14.473s-6.477 14.479-14.479 14.479c-7.994 0-14.471-6.485-14.471-14.479"
       fill="#414042"
       transform="matrix(4.162611 0 0 -4.162611 656.64056 631.05679)"
       id="path22" /></g><g
     id="g521"
     transform="matrix(1.3348619,0,0,1.2116813,-46.566867,-26.156159)"><path
       style="fill:#06763f;stroke:none;stroke-width:0.0881892"
       d="m 93.148333,79.489725 c -2.803108,0.331277 -5.302582,2.127858 -5.614698,4.531408 -0.335156,2.581012 -0.01684,5.33283 -0.01684,7.929918 v 16.020039 5.76721 c 0,1.39478 -0.09704,2.74383 0.764704,4.00501 1.71517,2.51002 4.655953,2.72341 7.779722,2.72341 h 15.341129 c 2.5741,0 5.42561,0.28123 7.96186,-0.0869 2.49069,-0.3615 4.55019,-1.95661 5.10481,-3.99828 0.46956,-1.7288 0.13836,-3.75855 0.13836,-5.52692 v -10.73338 -5.927419 c 0,-0.757828 0.26332,-1.908147 -0.0549,-2.620478 -0.34576,-0.774168 -1.60043,-1.424823 -2.25903,-2.025334 -2.07436,-1.891245 -4.28416,-3.683406 -6.42105,-5.526912 -1.26612,-1.092366 -2.49545,-2.213993 -3.79051,-3.284107 -0.45296,-0.3743 -0.93806,-1.045769 -1.55355,-1.233271 -0.47461,-0.14458 -1.15049,-0.04833 -1.65061,-0.04833 h -3.59257 -7.961837 c -1.361861,0 -2.826451,-0.125083 -4.175112,0.0343"
       id="path202"
       sodipodi:nodetypes="csscscssscscssccssscsc" /><g
       aria-label="XLSX"
       id="text971"
       style="font-size:15.5081px;fill:#ffffff;stroke-width:1.29235"><path
         d="m 99.492645,107.92039 q 0.136302,0.26503 0.174164,0.42405 0.04543,0.15902 -0.04543,0.24232 -0.09087,0.0833 -0.333182,0.10601 -0.234742,0.0227 -0.658791,0.0227 -0.355899,0 -0.560352,-0.0152 -0.204452,-0.0151 -0.325609,-0.0454 -0.113585,-0.0379 -0.166591,-0.0984 -0.05301,-0.0606 -0.09087,-0.15145 l -1.840072,-3.53627 -1.8325,3.53627 q -0.04543,0.0909 -0.09844,0.15145 -0.05301,0.0606 -0.174164,0.0984 -0.113584,0.0303 -0.325609,0.0454 -0.204453,0.0152 -0.545207,0.0152 -0.39376,0 -0.613357,-0.0227 -0.212025,-0.0227 -0.287748,-0.10601 -0.07572,-0.0833 -0.03029,-0.24232 0.04543,-0.15902 0.189308,-0.42405 l 2.347417,-4.27836 -2.180827,-4.020894 q -0.136301,-0.272603 -0.189307,-0.431622 -0.04543,-0.166591 0.03786,-0.242314 0.09087,-0.08329 0.32561,-0.09844 0.234741,-0.02272 0.666363,-0.02272 0.355899,0 0.560352,0.01515 0.212024,0.01514 0.333181,0.05301 0.121157,0.03029 0.166591,0.09087 0.05301,0.06058 0.09844,0.151446 l 1.718916,3.240954 1.673481,-3.240954 q 0.04543,-0.09087 0.09087,-0.151446 0.05301,-0.06058 0.159019,-0.09087 0.113584,-0.03786 0.302892,-0.05301 0.19688,-0.01515 0.537634,-0.01515 0.378616,0 0.598213,0.02272 0.219597,0.01515 0.302893,0.09844 0.08329,0.0833 0.03786,0.242314 -0.03786,0.159019 -0.16659,0.431622 l -2.180827,3.998184 z"
         style="-inkscape-font-specification:'Calibri Bold'"
         id="path1070" /><path
         d="m 106.43646,107.8371 q 0,0.22717 -0.0227,0.38619 -0.0151,0.15144 -0.053,0.25745 -0.0379,0.0984 -0.0984,0.14388 -0.053,0.0454 -0.12872,0.0454 h -4.49039 q -0.24988,0 -0.42405,-0.14387 -0.16659,-0.15145 -0.16659,-0.48463 v -8.89747 q 0,-0.07572 0.0454,-0.136301 0.053,-0.06058 0.16659,-0.09844 0.11358,-0.03786 0.30289,-0.06058 0.19688,-0.02272 0.48463,-0.02272 0.29532,0 0.48463,0.02272 0.1893,0.02272 0.30289,0.06058 0.11358,0.03786 0.15902,0.09844 0.053,0.06058 0.053,0.136301 v 7.88278 h 3.08194 q 0.0757,0 0.12872,0.0454 0.0606,0.0379 0.0984,0.1363 0.0379,0.0909 0.053,0.24989 0.0227,0.15145 0.0227,0.37862 z"
         style="-inkscape-font-specification:'Calibri Bold'"
         id="path1072" /><path
         d="m 113.41813,105.73199 q 0,0.77238 -0.28775,1.35545 -0.28774,0.58307 -0.77994,0.97683 -0.4922,0.38618 -1.151,0.58306 -0.65879,0.19688 -1.40845,0.19688 -0.50734,0 -0.94654,-0.0833 -0.43162,-0.0833 -0.7648,-0.19688 -0.33318,-0.12116 -0.56035,-0.24989 -0.2196,-0.12873 -0.31804,-0.22717 -0.0984,-0.0984 -0.14387,-0.28017 -0.0379,-0.18931 -0.0379,-0.53764 0,-0.23474 0.0151,-0.39376 0.0151,-0.15902 0.0454,-0.25746 0.0379,-0.0984 0.0909,-0.1363 0.0606,-0.0454 0.1363,-0.0454 0.10602,0 0.29532,0.12873 0.19689,0.12116 0.49978,0.2726 0.30289,0.15145 0.71937,0.28018 0.42405,0.12115 0.97683,0.12115 0.36347,0 0.65122,-0.0833 0.28774,-0.0909 0.48462,-0.24989 0.20446,-0.15902 0.31047,-0.39376 0.10601,-0.23474 0.10601,-0.52249 0,-0.33318 -0.18174,-0.56792 -0.18173,-0.24232 -0.47705,-0.42405 -0.28775,-0.18931 -0.65879,-0.34833 -0.37105,-0.16659 -0.76481,-0.34832 -0.39376,-0.18174 -0.7648,-0.40891 -0.37104,-0.23474 -0.66636,-0.55278 -0.28775,-0.32561 -0.46949,-0.7648 -0.18173,-0.4392 -0.18173,-1.05255 0,-0.70423 0.25746,-1.23429 0.26503,-0.537635 0.70422,-0.885961 0.44677,-0.355899 1.04498,-0.530062 0.60579,-0.174163 1.27972,-0.174163 0.34833,0 0.69665,0.05301 0.34833,0.05301 0.65122,0.143874 0.3029,0.09087 0.53764,0.204452 0.23474,0.113585 0.31046,0.189308 0.0757,0.07572 0.0984,0.12873 0.0303,0.05301 0.0454,0.143874 0.0227,0.08329 0.0303,0.219597 0.008,0.128729 0.008,0.325601 0,0.2196 -0.0152,0.37105 -0.008,0.15144 -0.0379,0.24988 -0.0227,0.0984 -0.0757,0.14388 -0.0454,0.0454 -0.12873,0.0454 -0.0833,0 -0.26503,-0.10601 -0.18174,-0.10601 -0.44677,-0.22717 -0.26503,-0.12873 -0.61335,-0.22717 -0.34833,-0.10601 -0.76481,-0.10601 -0.32561,0 -0.56792,0.0833 -0.24232,0.0757 -0.40891,0.2196 -0.15902,0.1363 -0.24231,0.33318 -0.0757,0.19688 -0.0757,0.41648 0,0.32561 0.17416,0.56792 0.18173,0.23475 0.47705,0.42405 0.3029,0.18174 0.68151,0.34833 0.37862,0.15902 0.77238,0.34075 0.39376,0.18174 0.77237,0.41648 0.37862,0.22717 0.67394,0.55278 0.29532,0.31804 0.47706,0.75723 0.18173,0.43162 0.18173,1.02226 z"
         style="-inkscape-font-specification:'Calibri Bold'"
         id="path1074" /><path
         d="m 121.77797,107.92039 q 0.1363,0.26503 0.17416,0.42405 0.0454,0.15902 -0.0454,0.24232 -0.0909,0.0833 -0.33319,0.10601 -0.23474,0.0227 -0.65879,0.0227 -0.3559,0 -0.56035,-0.0152 -0.20445,-0.0151 -0.32561,-0.0454 -0.11358,-0.0379 -0.16659,-0.0984 -0.053,-0.0606 -0.0909,-0.15145 l -1.84007,-3.53627 -1.8325,3.53627 q -0.0454,0.0909 -0.0984,0.15145 -0.053,0.0606 -0.17416,0.0984 -0.11359,0.0303 -0.32561,0.0454 -0.20446,0.0152 -0.54521,0.0152 -0.39376,0 -0.61336,-0.0227 -0.21202,-0.0227 -0.28774,-0.10601 -0.0757,-0.0833 -0.0303,-0.24232 0.0454,-0.15902 0.1893,-0.42405 l 2.34742,-4.27836 -2.18083,-4.020894 q -0.1363,-0.272603 -0.1893,-0.431622 -0.0454,-0.166591 0.0379,-0.242314 0.0909,-0.08329 0.32561,-0.09844 0.23474,-0.02272 0.66636,-0.02272 0.3559,0 0.56035,0.01515 0.21203,0.01514 0.33318,0.05301 0.12116,0.03029 0.1666,0.09087 0.053,0.06058 0.0984,0.151446 l 1.71891,3.240954 1.67348,-3.240954 q 0.0454,-0.09087 0.0909,-0.151446 0.053,-0.06058 0.15902,-0.09087 0.11358,-0.03786 0.30289,-0.05301 0.19688,-0.01515 0.53764,-0.01515 0.37861,0 0.59821,0.02272 0.2196,0.01515 0.30289,0.09844 0.0833,0.0833 0.0379,0.242314 -0.0379,0.159019 -0.16659,0.431622 l -2.18082,3.998184 z"
         style="-inkscape-font-specification:'Calibri Bold'"
         id="path1076" /></g></g></svg>
